# xmcd
#
# Track frame offsets: 
#        150
#        15748
#        34947
#        49144
#        63159
#        81518
#        99136
#        118522
#        133387
#        147180
#        163679
#        180313
#        194252
#        210491
#        224474
#        241776
#        253877
#        269624
#        279993
#        294359
#        308884
#        319344
#        331524
#        342889
#
# Disc length: 4773 seconds
#
# Revision: 0
# Processed by: cddbd v1.5.2PL0 Copyright (c) Steve Scherf et al.
# Submitted via: ExactAudioCopyFreeDBPlugin 1.0
#
DISCID=6412a318
DTITLE=Édith Piaf - Edith PIAF best of [CD3]
DYEAR=2010
DGENRE=Oldies
TTITLE0=L'hymne à l'amour
TTITLE1=Les trois cloches
TTITLE2=L'accordéoniste
TTITLE3=Bravo pour le clown
TTITLE4=T'es beau tu sais
TTITLE5=Tatave
TTITLE6=C'est toi
TTITLE7=Y avait du soleil
TTITLE8=La java de cezigue
TTITLE9=Salle d'attente
TTITLE10=Celui qui ne savait pas pleurer
TTITLE11=Le brun et le blond
TTITLE12=Soudain une vallée
TTITLE13=Dans un bouge du vieux port
TTITLE14=Chanson bleue
TTITLE15=Une dame
TTITLE16=Le gitan et la fille
TTITLE17=Qu'as tu fait John?
TTITLE18=Les amants de Paris
TTITLE19=Le prisonnier de la tour
TTITLE20=La valse de l'amour
TTITLE21=Paris
TTITLE22=Les amants de demain
TTITLE23=La vie en rose (En Anglais)
EXTD=
EXTT0=
EXTT1=
EXTT2=
EXTT3=
EXTT4=
EXTT5=
EXTT6=
EXTT7=
EXTT8=
EXTT9=
EXTT10=
EXTT11=
EXTT12=
EXTT13=
EXTT14=
EXTT15=
EXTT16=
EXTT17=
EXTT18=
EXTT19=
EXTT20=
EXTT21=
EXTT22=
EXTT23=
PLAYORDER=
